Coordinates
version=1
nRows=27
nColumns=12
inDegrees=yes

Units are S.I. units (second, meters, Newtons, ...)
Angles are in degrees

endheader
time	SC_y	SC_z	SC_x	AC_y	AC_z	AC_x	GH_y	GH_z	GH_yy	EL_x	PS_y
       0.0              -30.45           5.54          34.63          38.22          4.828          16.12         -74.33          21.88         -105.2          41.63          94.67
  0.001963              -30.46          5.541          34.63          38.22          4.828          16.11         -74.29          21.88         -105.2          41.64          94.68
  0.003925              -30.46          5.543          34.63          38.22          4.827          16.11         -74.26          21.89         -105.2          41.65          94.68
  0.005888              -30.47          5.544          34.63          38.23          4.827          16.11         -74.21          21.89         -105.2          41.67          94.68
  0.007851              -30.47          5.546          34.62          38.23          4.827          16.11         -74.17           21.9         -105.2          41.68          94.69
  0.009814              -30.47          5.547          34.62          38.24          4.827           16.1         -74.12          21.91         -105.2          41.69          94.69
   0.01178              -30.48          5.549          34.61          38.24          4.827           16.1         -74.07          21.91         -105.2          41.71           94.7
   0.01374              -30.48          5.551          34.61          38.24          4.826          16.09         -74.02          21.92         -105.1          41.73          94.71
    0.0157              -30.49          5.553          34.61          38.25          4.826          16.09         -73.96          21.93         -105.1          41.74          94.71
   0.01766              -30.49          5.555           34.6          38.26          4.826          16.09          -73.9          21.94         -105.1          41.76          94.72
   0.01963               -30.5          5.558           34.6          38.26          4.826          16.08         -73.83          21.95         -105.1          41.78          94.73
   0.02159              -30.51           5.56          34.59          38.27          4.825          16.08         -73.76          21.96         -105.1           41.8          94.74
   0.02355              -30.51          5.563          34.59          38.27          4.825          16.07         -73.68          21.97         -105.0          41.83          94.74
   0.02552              -30.52          5.566          34.58          38.28          4.825          16.06          -73.6          21.98         -105.0          41.85          94.75
   0.02748              -30.53          5.569          34.57          38.29          4.824          16.06         -73.51          21.99         -105.0          41.88          94.76
   0.02944              -30.54          5.573          34.57           38.3          4.824          16.05         -73.41           22.0         -105.0          41.91          94.77
    0.0314              -30.55          5.576          34.56          38.31          4.823          16.04          -73.3          22.02         -104.9          41.94          94.79
   0.03337              -30.56          5.581          34.55          38.32          4.823          16.03         -73.19          22.03         -104.9          41.97           94.8
   0.03533              -30.57          5.585          34.54          38.33          4.822          16.02         -73.06          22.05         -104.9          42.01          94.81
   0.03729              -30.58           5.59          34.53          38.34          4.822          16.01         -72.92          22.07         -104.8          42.05          94.83
   0.03925               -30.6          5.595          34.52          38.36          4.821           16.0         -72.77          22.09         -104.8           42.1          94.85
   0.04122              -30.61          5.601          34.51          38.37          4.821          15.99          -72.6          22.11         -104.7          42.15          94.87
   0.04318              -30.63          5.608          34.49          38.39           4.82          15.98         -72.41          22.14         -104.7           42.2          94.89
   0.04514              -30.65          5.615          34.48          38.41          4.819          15.96         -72.21          22.17         -104.6          42.27          94.91
    0.0471              -30.67          5.623          34.46          38.43          4.818          15.94         -71.98           22.2         -104.5          42.33          94.94
   0.04907              -30.69          5.632          34.44          38.45          4.817          15.93         -71.73          22.23         -104.5          42.41          94.96
   0.05103              -30.72          5.642          34.42          38.47          4.816           15.9         -71.44          22.27         -104.4          42.49           95.0
